<?xml version="1.0" standalone="no"?>
<!DOCTYPE svg PUBLIC "-//W3C//DTD SVG 20010904//EN"
 "http://www.w3.org/TR/2001/REC-SVG-20010904/DTD/svg10.dtd">
<svg version="1.0" xmlns="http://www.w3.org/2000/svg"
 width="1360.000000pt" height="1360.000000pt" viewBox="0 0 1360.000000 1360.000000"
 preserveAspectRatio="xMidYMid meet">
<metadata>
Created by potrace 1.16, written by Peter Selinger 2001-2019
</metadata>
<g transform="translate(0.000000,1360.000000) scale(0.100000,-0.100000)"
fill="#000000" stroke="none">
<path d="M0 6800 l0 -6800 6800 0 6800 0 0 6800 0 6800 -6800 0 -6800 0 0
-6800z m10251 1459 c5 -8 9 -8 13 0 4 6 12 8 18 4 7 -3 86 -7 177 -8 172 -2
219 -10 364 -59 38 -13 82 -35 99 -50 16 -14 34 -26 39 -26 5 0 9 -4 9 -10 0
-5 -7 -7 -15 -4 -10 4 -15 0 -15 -12 1 -25 22 -52 37 -47 6 2 14 -5 18 -16 3
-12 13 -21 20 -21 8 0 29 -9 47 -19 17 -11 35 -18 40 -15 4 3 8 1 8 -4 0 -5 9
-12 21 -15 16 -4 18 -3 8 9 -9 11 -8 14 5 14 10 0 14 5 11 10 -10 17 7 11 22
-7 8 -10 12 -12 8 -5 -4 8 1 12 14 12 12 0 21 -5 21 -11 0 -5 4 -8 8 -5 5 3
20 -3 34 -12 41 -27 169 -145 163 -150 -3 -3 -1 -10 5 -16 6 -8 -1 -22 -21
-43 -16 -18 -29 -37 -29 -42 0 -6 -9 -16 -20 -23 -11 -7 -20 -17 -20 -22 0
-14 -78 -85 -86 -78 -4 4 -4 -1 -1 -11 4 -10 3 -16 -2 -12 -5 3 -18 -6 -29
-20 -11 -13 -23 -21 -27 -17 -5 4 -6 0 -2 -9 7 -21 -20 -19 -54 4 -15 10 -31
17 -35 15 -8 -2 -153 99 -196 136 -9 8 -19 12 -22 8 -4 -3 -5 5 -4 18 2 18 -3
25 -22 31 -14 4 -20 7 -14 8 7 1 15 8 18 16 3 10 1 15 -7 13 -6 -1 -27 6 -44
15 -18 10 -35 16 -39 15 -3 -2 -12 8 -21 22 -8 14 -12 17 -9 8 8 -25 -21 -23
-34 2 -9 16 -8 18 5 14 8 -4 15 -1 15 5 0 6 -4 11 -8 11 -14 0 -62 -25 -62
-31 0 -6 -33 -10 -100 -11 -14 0 -41 2 -60 6 -19 3 -92 9 -162 12 -71 4 -128
10 -128 14 0 4 -6 7 -12 7 -7 0 -23 3 -35 7 -13 4 -23 3 -23 -2 0 -5 -31 -9
-70 -8 -56 1 -70 -2 -71 -14 -1 -12 -2 -12 -6 2 -5 18 -33 33 -33 18 0 -6 -5
-10 -11 -10 -5 0 -7 6 -3 13 6 8 3 8 -9 -1 -17 -14 -57 -8 -57 9 0 6 -5 7 -10
4 -8 -5 -7 -11 0 -20 9 -11 6 -20 -14 -40 -14 -14 -23 -25 -20 -25 14 0 -57
-50 -106 -75 -30 -15 -73 -39 -95 -53 -22 -14 -41 -24 -43 -21 -2 2 -8 -4 -13
-14 -6 -9 -14 -15 -20 -12 -5 4 -9 1 -9 -4 0 -6 -6 -11 -14 -11 -7 0 -25 -9
-39 -20 -27 -22 -57 -26 -57 -9 0 5 4 8 9 5 5 -3 11 0 14 8 3 8 0 17 -8 20 -8
3 -15 -4 -19 -18 -3 -13 -18 -36 -33 -51 -16 -16 -23 -25 -17 -22 19 11 24
-19 7 -43 -9 -12 -21 -19 -30 -16 -11 5 -13 2 -9 -10 4 -10 0 -18 -13 -21 -12
-3 -17 -11 -14 -19 3 -8 0 -14 -7 -14 -6 0 -9 -4 -5 -9 3 -5 -18 -58 -47 -118
-56 -113 -82 -173 -93 -210 -3 -13 -10 -23 -14 -23 -4 0 -8 -10 -8 -22 -1 -13
-7 -24 -13 -26 -5 -2 -8 -7 -5 -12 3 -5 1 -20 -5 -34 -6 -16 -6 -27 1 -31 5
-4 7 -11 3 -16 -15 -25 -22 -320 -10 -422 5 -40 4 -63 -5 -73 -9 -12 -9 -13 2
-9 9 3 18 -6 25 -29 6 -20 7 -33 2 -30 -4 3 -5 -2 -2 -10 3 -9 10 -16 15 -16
5 0 9 -8 9 -17 0 -10 20 -66 44 -125 24 -60 41 -108 38 -108 -3 0 2 -6 13 -13
23 -17 26 -68 6 -85 -14 -10 -13 -11 4 -5 11 3 17 2 12 -2 -4 -5 0 -16 8 -25
13 -14 13 -17 0 -17 -8 0 -12 4 -9 9 3 4 0 8 -5 8 -14 0 -14 -13 1 -28 11 -11
3 -16 -23 -14 -3 1 -6 -6 -6 -13 0 -11 4 -12 13 -4 7 6 24 12 38 13 18 2 23
-1 18 -12 -3 -9 -1 -13 5 -9 7 5 9 0 6 -13 -3 -11 -10 -20 -16 -20 -18 0 -1
-10 32 -20 19 -5 29 -5 26 1 -12 19 13 8 41 -18 18 -17 22 -24 11 -20 -14 5
-18 3 -15 -10 2 -9 10 -18 18 -20 13 -4 13 -3 0 6 -13 9 -12 11 6 11 27 0 97
-34 88 -43 -4 -4 -2 -7 4 -7 7 0 35 -16 62 -36 28 -20 84 -55 125 -79 79 -45
132 -95 100 -95 -12 0 -15 -5 -11 -16 3 -9 6 -23 6 -31 0 -10 6 -14 20 -10 10
3 19 2 18 -2 -2 -18 3 -24 12 -11 8 12 11 12 28 -3 25 -23 52 -22 52 3 0 14 5
18 17 13 11 -4 14 -3 9 5 -4 7 -2 12 3 12 16 0 13 -20 -4 -26 -8 -4 -15 -10
-15 -15 0 -6 8 -6 19 0 22 12 31 5 31 -24 0 -19 6 -22 40 -22 22 0 40 3 40 8
0 4 -15 6 -34 5 -32 -1 -35 1 -33 26 1 15 7 30 13 32 6 2 11 -3 10 -12 0 -10
5 -16 13 -14 8 2 17 -2 21 -9 6 -9 13 -8 29 3 11 8 18 17 15 20 -3 3 1 5 8 5
17 -2 173 11 303 24 55 6 149 23 210 39 125 32 164 33 183 7 10 -12 23 -17 42
-13 21 3 30 0 33 -12 3 -10 5 -5 6 10 1 16 9 32 21 38 11 6 17 16 14 25 -7 18
12 20 19 3 4 -9 12 -5 26 12 21 24 22 25 36 6 13 -17 15 -18 15 -3 0 9 3 16 8
15 4 -2 9 2 10 7 2 6 8 16 14 23 8 10 6 11 -8 5 -16 -6 -17 -4 -7 8 9 11 8 27
-4 71 -9 32 -20 55 -24 52 -5 -3 -6 2 -3 10 4 9 1 16 -6 16 -10 0 -10 3 0 15
9 11 9 15 1 15 -9 0 -12 58 -11 213 0 116 1 224 0 240 l0 27 -206 0 c-127 0
-213 4 -225 11 -28 15 -207 15 -221 1 -7 -7 -40 -12 -75 -12 l-63 0 0 45 c0
25 4 45 8 45 9 0 11 13 13 64 0 16 5 38 10 48 5 10 6 18 2 18 -4 0 -9 32 -11
70 -2 51 1 70 10 70 9 0 8 3 -2 10 -11 7 -17 4 -22 -13 -4 -15 -6 -7 -6 23 0
25 2 38 6 30 6 -14 19 -17 40 -10 29 11 495 23 489 13 -3 -5 12 -7 33 -5 27 3
43 -1 57 -15 17 -17 69 -20 58 -3 -8 13 24 5 38 -10 10 -10 9 -11 -2 -5 -9 5
-12 4 -7 -3 11 -19 33 -14 50 10 9 12 19 18 23 14 5 -5 2 -11 -4 -13 -24 -9
-13 -19 19 -18 18 0 33 5 33 12 0 6 3 15 8 19 4 4 7 0 7 -9 0 -9 5 -17 11 -17
5 0 7 5 3 12 -4 7 -3 8 4 4 6 -4 21 -2 32 4 15 8 20 8 20 -2 0 -8 3 -9 8 -3
16 24 64 32 190 34 l132 2 0 -188 c0 -125 -4 -183 -10 -173 -5 8 -10 10 -10 4
0 -6 3 -13 6 -17 4 -3 7 -24 8 -47 1 -23 -1 -35 -6 -28 -4 7 -5 -13 -2 -44 3
-39 1 -58 -6 -58 -6 0 -8 -5 -5 -10 4 -6 10 -8 15 -5 5 3 7 -9 4 -27 -5 -29
-6 -67 -4 -103 1 -5 1 -19 2 -30 0 -11 2 -121 5 -245 5 -256 2 -290 -28 -290
-13 0 -18 -4 -13 -12 5 -8 0 -7 -11 2 -11 9 -16 10 -11 3 5 -9 0 -13 -13 -13
-28 0 -37 3 -33 13 3 11 -41 -13 -50 -27 -4 -6 -2 -16 4 -23 6 -8 9 -15 7 -18
-8 -7 -24 9 -36 35 l-12 25 0 -23 c-1 -13 -5 -20 -11 -17 -5 3 -10 -1 -10 -11
0 -13 -3 -14 -15 -4 -13 10 -15 9 -15 -10 0 -21 -1 -22 -25 -6 -14 9 -26 13
-27 9 -4 -24 -3 -39 4 -44 10 -7 -1 -39 -13 -39 -4 0 -6 7 -3 15 4 10 0 15
-11 15 -12 0 -15 -5 -10 -17 18 -45 19 -57 2 -50 -10 4 -17 2 -17 -5 0 -31
-195 -127 -287 -141 -17 -3 -36 -8 -42 -11 -5 -4 -12 -2 -16 4 -3 5 -11 10
-16 10 -6 0 -7 -4 -4 -10 3 -6 -1 -7 -9 -4 -9 3 -13 11 -9 17 4 6 0 8 -11 4
-10 -4 -24 1 -35 12 -12 12 -23 16 -32 10 -11 -7 -10 -9 5 -9 11 0 17 -3 13
-6 -3 -4 -20 -2 -36 4 -29 10 -31 9 -31 -14 0 -20 -5 -24 -30 -24 -16 0 -30 5
-30 10 0 6 12 8 28 5 15 -3 20 -2 12 2 -8 3 -23 15 -32 26 -10 11 -18 18 -19
16 -5 -25 -9 -38 -23 -64 -9 -16 -16 -25 -16 -18 0 6 -3 19 -7 29 -4 12 -3 15
5 10 7 -4 12 -2 12 4 0 22 -31 22 -50 0 -11 -13 -26 -20 -34 -17 -9 4 -22 0
-30 -8 -8 -8 -19 -15 -25 -15 -5 0 -17 -7 -25 -16 -9 -8 -26 -16 -38 -17 -13
0 -26 -6 -30 -11 -5 -7 -20 -7 -47 0 -22 6 -38 7 -35 3 3 -5 -2 -9 -10 -9 -9
0 -16 3 -16 8 0 4 -26 7 -57 6 -79 -1 -213 23 -234 42 -10 9 -23 13 -28 9 -6
-3 -11 0 -11 8 0 8 -7 20 -15 27 -17 14 -21 35 -5 25 6 -3 10 1 10 10 0 12 5
15 18 11 11 -4 9 1 -7 14 -13 12 -30 19 -38 16 -17 -7 -17 11 0 17 17 7 -10
26 -32 22 -9 -1 -19 5 -24 14 -5 10 -6 7 -4 -11 2 -15 0 -25 -4 -22 -5 3 -9
11 -9 19 0 8 -8 13 -19 12 -15 -1 -18 -7 -14 -30 3 -19 1 -27 -6 -22 -6 3 -9
11 -6 16 4 5 -2 12 -12 16 -10 4 -21 11 -25 17 -6 7 -11 6 -18 -4 -5 -8 -10
-11 -10 -6 0 5 -9 1 -21 -10 -21 -19 -21 -18 -40 4 -11 14 -23 20 -30 16 -8
-4 -9 -3 -5 4 4 7 2 12 -3 12 -6 0 -11 -8 -11 -17 0 -12 -3 -14 -8 -6 -4 7
-13 9 -21 4 -18 -12 -47 -3 -105 32 -107 62 -234 176 -221 197 3 6 -1 7 -9 4
-16 -6 -22 7 -9 20 4 3 8 14 9 24 3 16 2 16 -9 1 -11 -15 -15 -15 -32 -3 -10
8 -15 14 -11 14 5 0 3 7 -4 15 -7 9 -10 18 -6 22 3 3 6 1 6 -6 0 -7 5 -9 12
-5 6 4 8 3 5 -2 -3 -6 -1 -16 4 -24 8 -12 12 -12 16 -2 2 6 12 12 21 12 13 0
11 4 -6 16 -12 8 -22 22 -22 30 0 8 -4 12 -10 9 -5 -3 -19 -1 -30 5 -16 9 -18
15 -10 30 8 15 7 19 -9 17 -11 -1 -17 -6 -13 -12 4 -5 5 -18 4 -27 -2 -11 3
-18 12 -18 10 0 13 -6 10 -15 -6 -15 -26 -22 -22 -7 3 13 -25 62 -32 57 -4 -3
-10 5 -14 18 -4 14 -9 18 -14 10 -5 -8 -14 -4 -29 13 -12 13 -19 24 -16 24 3
0 -5 10 -19 23 -26 25 -89 126 -114 186 -26 61 -28 161 -3 146 5 -4 9 -1 9 4
0 6 -7 11 -15 11 -8 0 -15 5 -15 10 0 6 6 10 13 10 7 0 8 3 2 8 -6 4 -15 21
-20 37 -6 17 -14 28 -18 25 -8 -6 -57 63 -57 80 0 6 -4 9 -9 6 -10 -6 -25 51
-41 154 -40 261 -5 711 59 759 17 13 19 19 9 29 -9 9 -7 12 9 12 12 0 25 5 29
12 4 6 3 8 -4 5 -6 -5 -8 0 -5 13 3 11 10 20 15 20 5 0 6 -5 2 -12 -5 -7 -3
-8 5 -4 7 5 10 14 7 22 -3 9 1 14 12 15 14 0 15 2 2 7 -17 8 -20 26 -6 39 5 4
6 3 2 -4 -15 -26 14 -21 33 6 25 35 25 37 5 45 -11 4 -15 2 -11 -8 4 -10 1
-13 -9 -9 -11 4 -12 9 -3 19 6 7 8 18 5 23 -4 5 -2 12 4 16 5 3 10 20 10 36 0
17 4 28 10 24 6 -3 7 1 4 9 -4 9 20 55 59 113 83 123 87 129 115 137 12 4 20
11 17 16 -3 4 3 6 13 4 11 -4 23 5 36 26 10 17 20 29 23 26 3 -3 1 -12 -5 -19
-12 -14 -7 -27 10 -27 5 0 7 4 3 9 -3 5 -1 12 5 16 5 3 10 1 10 -4 0 -6 5 -11
11 -11 6 0 4 9 -5 22 -18 25 -10 45 36 90 16 15 26 33 23 38 -4 6 -3 10 2 9
21 -4 38 2 26 9 -25 16 232 183 277 180 14 -1 30 1 36 4 5 4 16 3 24 -3 12 -7
9 -9 -10 -9 -17 0 -21 -3 -12 -9 8 -4 24 -7 38 -5 13 1 26 -2 30 -7 3 -5 21
-9 40 -9 26 0 33 -3 28 -12 -5 -9 -2 -9 9 1 18 14 24 36 7 26 -5 -3 -10 -1
-10 4 0 6 -5 11 -11 11 -5 0 -7 -6 -3 -12 4 -7 -2 -4 -14 6 -12 11 -22 26 -22
34 0 9 3 12 8 8 4 -4 7 -12 7 -17 0 -5 3 -9 8 -9 4 0 12 0 18 0 5 0 7 6 3 13
-4 6 -4 9 0 5 5 -4 27 3 49 15 40 21 40 22 17 28 l-25 7 25 1 c22 1 73 41 52
41 -21 0 54 29 114 44 135 32 339 41 355 15z m-8001 -41 c0 -4 6 -8 14 -8 7 0
19 -6 25 -14 6 -7 25 -12 41 -11 28 2 40 -8 23 -18 -5 -2 -3 -2 4 -1 6 2 14
-7 16 -19 3 -13 3 -11 2 6 -1 21 2 27 14 24 9 -2 15 -9 14 -15 -3 -14 23 -16
32 -2 3 5 13 6 22 3 10 -4 14 -2 10 4 -4 6 12 13 40 17 25 3 51 13 57 22 13
17 50 9 39 -10 -3 -6 -2 -7 3 -3 5 5 9 14 9 20 0 8 22 13 56 15 l56 3 59 -122
c32 -67 59 -131 59 -143 0 -11 7 -27 15 -34 9 -8 10 -11 2 -7 -11 6 -11 3 -1
-13 7 -12 16 -19 20 -16 4 2 6 -4 5 -13 -2 -10 2 -21 8 -25 8 -6 8 -8 -1 -8
-6 0 -15 5 -18 10 -10 16 -25 12 -19 -5 4 -8 9 -13 13 -11 4 3 13 0 21 -5 13
-7 13 -10 1 -18 -10 -6 -10 -10 -1 -16 6 -4 9 -13 6 -20 -2 -7 5 -21 16 -32
12 -10 18 -12 14 -5 -4 6 -3 12 2 12 6 0 12 -7 16 -15 3 -8 2 -15 -3 -15 -13
0 -21 -39 -10 -46 5 -3 9 -2 8 3 -5 31 3 36 22 13 11 -14 17 -19 13 -11 -5 9
-3 12 4 7 7 -4 12 -12 12 -17 0 -6 11 -25 24 -42 66 -89 238 -472 202 -450 -6
4 -3 -6 8 -21 15 -23 16 -30 5 -37 -8 -5 -18 -9 -23 -9 -4 0 2 -9 15 -21 13
-11 18 -17 10 -13 -9 5 -12 3 -7 -5 5 -7 16 -9 28 -5 13 4 18 2 14 -4 -8 -13
4 -43 14 -37 4 3 10 -2 13 -10 4 -10 1 -12 -11 -9 -10 4 -6 -5 11 -20 16 -15
26 -33 23 -41 -3 -10 0 -12 12 -8 15 6 16 5 2 -12 -13 -16 -13 -18 0 -13 8 3
28 -11 47 -34 45 -54 183 -330 187 -375 3 -21 5 -39 5 -40 1 -2 1 -6 0 -10 0
-3 6 -10 15 -15 11 -6 14 -17 10 -34 -5 -19 -3 -23 9 -18 12 4 14 1 10 -16 -4
-16 0 -23 15 -27 15 -4 19 -11 16 -29 -3 -15 0 -23 7 -22 6 2 14 -3 16 -10 3
-7 -1 -10 -10 -6 -8 3 -18 0 -22 -6 -3 -6 -3 -9 2 -8 17 5 51 -26 45 -40 -3
-9 -1 -13 5 -9 7 5 9 0 6 -13 -3 -11 -1 -20 4 -20 5 0 15 -11 21 -25 13 -28
34 -32 52 -10 11 13 15 13 21 3 6 -9 9 -8 9 6 0 15 5 17 30 13 17 -4 30 -2 30
3 0 6 -7 10 -16 10 -10 0 -14 6 -10 15 3 8 0 14 -6 12 -6 -1 -12 3 -14 8 -2 6
5 11 16 11 11 0 20 -4 20 -9 0 -4 4 -6 9 -3 5 3 7 16 5 29 -2 12 -2 16 2 10 3
-7 13 -13 22 -13 13 0 14 2 4 8 -16 10 -5 42 14 42 10 0 14 12 14 40 0 27 -4
39 -12 38 -17 -4 -17 43 0 61 8 8 9 17 3 25 -12 14 67 188 82 179 6 -3 7 -1 3
6 -5 7 3 22 19 37 23 21 31 23 61 15 23 -6 32 -6 28 1 -4 6 0 14 7 19 12 8 12
11 -1 19 -12 8 -11 11 8 16 16 5 22 12 19 25 -3 12 0 16 9 12 9 -3 14 2 14 13
0 11 8 28 16 39 16 20 16 20 9 -2 -5 -18 -3 -22 8 -17 9 3 13 13 9 26 -4 15
-2 19 7 13 10 -6 11 -3 2 14 -7 11 -9 21 -6 21 4 0 -3 12 -15 27 -33 42 -20
104 57 258 36 72 71 133 77 137 6 4 7 8 2 8 -5 0 0 8 11 18 11 9 19 27 18 39
-1 15 3 20 14 15 9 -3 13 -1 8 3 -10 11 23 46 36 38 6 -3 7 -1 3 5 -4 7 -2 12
4 12 7 0 10 7 6 15 -3 8 1 20 8 27 7 8 12 21 10 31 -1 9 2 17 8 17 6 0 8 -7 4
-15 -3 -8 0 -15 7 -16 9 0 9 -2 -1 -6 -6 -2 -10 -9 -6 -14 3 -5 0 -9 -5 -9 -6
0 -11 -8 -11 -17 0 -15 4 -13 20 7 18 23 20 56 5 79 -3 6 1 26 9 46 11 26 12
35 3 36 -9 0 -9 2 1 6 6 2 12 14 13 26 0 12 26 72 57 132 41 79 62 109 73 107
10 -1 19 6 22 18 3 11 10 20 16 20 6 0 8 -8 5 -17 -5 -17 -5 -17 9 -1 8 10 17
15 20 11 4 -3 7 -1 7 5 0 6 12 12 28 14 22 2 28 8 30 36 2 19 -1 32 -8 32 -7
0 -2 9 11 19 13 11 25 18 27 16 8 -8 9 -45 1 -45 -6 0 -7 -5 -3 -11 4 -8 9 -7
14 2 11 17 3 50 -16 68 -9 9 -14 10 -10 4 4 -7 3 -13 -2 -13 -14 0 -22 27 -15
47 5 12 3 14 -7 8 -9 -5 -11 -4 -6 4 4 6 11 9 15 7 10 -6 8 25 -3 42 -4 6 -3
12 3 12 5 0 13 9 16 20 6 18 15 20 111 20 65 0 104 -4 104 -10 0 -7 6 -7 19 0
14 7 22 7 27 -2 4 -7 3 -8 -4 -4 -8 5 -10 1 -5 -10 5 -14 7 -14 14 -1 5 8 17
14 27 12 9 -2 42 -4 73 -4 54 -1 56 -2 51 -26 -4 -25 11 -35 23 -14 4 6 14 8
22 5 8 -3 11 -1 8 4 -9 14 8 12 25 -2 8 -7 7 -4 -2 7 -16 20 -16 21 2 33 11 7
25 12 32 11 7 0 4 -5 -7 -10 -17 -8 -16 -9 8 -6 31 5 31 4 16 -25 -6 -11 -7
-18 -1 -14 13 8 14 -70 0 -116 -8 -28 -8 -41 0 -51 17 -20 15 -2546 -1 -2566
-9 -12 -9 -13 1 -7 10 6 12 -26 10 -156 -1 -90 -6 -169 -11 -175 -6 -9 -25
-11 -61 -6 -28 3 -66 6 -83 7 -18 0 -33 4 -33 9 0 4 -4 6 -9 3 -5 -3 -47 -6
-94 -7 -55 -1 -86 -5 -84 -12 1 -5 -16 -12 -37 -14 l-39 -5 7 64 c4 35 8 69 9
76 0 6 6 12 13 12 6 0 14 7 18 15 3 9 0 15 -9 15 -8 0 -15 3 -16 8 -1 4 -3 28
-5 53 -2 25 -7 65 -13 88 -5 25 -5 41 0 41 6 0 6 8 0 19 -15 28 -16 178 -1
196 9 11 9 15 1 15 -8 0 -11 41 -9 144 2 79 6 142 9 140 3 -1 6 3 6 11 0 8 -4
12 -8 10 -9 -6 -4 99 6 115 5 8 4 11 -2 7 -6 -4 -13 6 -15 24 -3 16 -1 32 4
35 5 3 6 10 2 15 -3 5 0 16 6 24 10 12 10 15 0 15 -8 0 -10 3 -7 7 4 3 1 13
-6 21 -6 9 -7 13 -1 9 7 -4 10 23 8 89 -2 67 0 93 8 88 7 -5 8 -3 2 7 -12 19
-13 70 -1 92 6 13 4 24 -7 36 -10 11 -12 21 -6 31 14 22 12 80 -2 80 -8 0 -9
3 -3 8 11 8 13 67 3 78 -4 4 -3 15 3 25 7 14 6 19 -3 20 -10 0 -10 2 -1 6 10
3 10 10 2 24 -5 11 -7 24 -3 30 3 6 8 54 10 107 2 58 8 98 14 100 7 3 8 8 1
16 -15 18 -22 95 -22 244 1 72 -3 132 -8 132 -5 0 -30 -43 -56 -95 -26 -52
-51 -92 -56 -89 -5 3 -9 1 -9 -5 0 -14 -41 -51 -50 -46 -4 2 -5 -6 -3 -19 6
-29 -14 -69 -29 -60 -6 4 -8 3 -4 -4 3 -6 -1 -15 -10 -20 -11 -6 -13 -12 -5
-16 11 -7 10 -9 -20 -67 -8 -17 -8 -19 3 -13 10 6 10 5 2 -7 -6 -8 -11 -21
-11 -30 0 -20 -122 -271 -137 -281 -6 -4 -7 -8 -1 -8 5 0 -2 -8 -15 -17 -14
-10 -29 -17 -33 -15 -5 1 -6 -2 -2 -8 3 -5 1 -10 -5 -10 -6 0 -8 -4 -5 -10 3
-6 -4 -10 -17 -10 -21 -1 -22 -2 -6 -14 16 -12 16 -15 2 -32 -13 -16 -15 -16
-10 -2 3 10 0 20 -6 24 -6 4 -8 3 -4 -4 3 -6 -1 -17 -9 -25 -8 -9 -15 -24 -15
-34 0 -10 -3 -14 -8 -8 -4 6 -18 11 -32 12 -14 1 -19 -1 -12 -4 10 -4 9 -9 -5
-20 -14 -11 -11 -11 9 1 l28 16 -11 -27 c-6 -16 -8 -50 -4 -79 5 -42 1 -61
-21 -112 -15 -34 -31 -62 -37 -62 -6 0 -8 -3 -4 -6 7 -7 -74 -174 -95 -195
-32 -33 -57 -72 -52 -80 3 -5 -2 -9 -10 -9 -9 0 -18 -12 -22 -27 -10 -46 -14
-50 -11 -11 2 25 -2 39 -11 43 -11 4 -13 -4 -10 -40 5 -40 3 -45 -16 -45 -16
0 -18 -2 -7 -9 8 -5 12 -18 8 -30 -3 -12 -1 -21 3 -21 12 0 -18 -92 -33 -102
-6 -4 -9 -8 -4 -8 9 0 -39 -96 -53 -105 -5 -3 -10 -15 -10 -25 0 -10 -9 -25
-20 -33 -14 -10 -18 -20 -14 -32 5 -12 4 -16 -3 -12 -6 4 -14 1 -16 -5 -4 -9
-8 -10 -14 -2 -4 6 -26 10 -47 9 -33 -2 -36 0 -22 10 15 11 15 13 1 19 -11 4
-14 2 -9 -6 5 -8 2 -9 -10 -5 -10 4 -29 -1 -44 -11 -14 -9 -23 -11 -19 -4 10
15 3 15 -48 1 -22 -6 -43 -16 -47 -23 -9 -13 -30 12 -22 26 3 4 0 8 -5 8 -6 0
-11 6 -11 14 0 8 -3 16 -8 18 -4 2 -31 53 -61 113 -35 72 -53 122 -53 144 1
18 -2 39 -6 45 -4 6 -7 20 -7 31 0 11 -6 19 -12 17 -7 -1 -13 4 -13 12 0 8 -3
16 -7 19 -5 2 -3 2 4 1 7 -2 15 2 19 8 4 7 3 8 -5 4 -6 -4 -14 0 -17 8 -3 9
-10 13 -15 10 -5 -3 -6 2 -3 11 4 8 1 22 -6 30 -10 13 -10 19 4 34 16 18 16
19 -13 32 -16 7 -27 17 -25 21 5 7 -10 12 -29 9 -4 -1 -10 6 -13 14 -4 8 -13
15 -22 15 -8 0 -13 3 -9 6 3 3 -2 14 -11 24 -31 34 -154 308 -155 347 -1 21
-6 41 -12 45 -6 5 -5 8 3 8 8 0 10 8 6 24 -3 13 0 34 6 46 9 17 9 21 0 15 -17
-11 -99 82 -92 104 3 8 0 11 -7 7 -6 -4 -11 -3 -11 2 0 16 13 21 30 12 16 -9
17 -7 7 14 -11 24 -37 31 -49 13 -3 -6 -10 6 -14 27 -4 26 -9 34 -15 24 -7
-10 -15 -7 -36 16 -15 16 -22 26 -15 22 6 -4 12 -2 12 3 0 6 -6 11 -12 11 -7
0 -48 72 -91 161 -77 158 -85 179 -91 230 -2 14 -9 36 -17 50 -16 30 -20 51
-8 43 5 -3 9 5 9 18 0 18 -2 20 -10 8 -6 -10 -10 -11 -10 -3 0 7 -3 12 -7 12
-20 -3 -26 2 -13 11 13 8 12 10 -5 11 -11 1 -24 1 -29 0 -5 -1 -3 5 4 14 7 8
10 18 6 22 -3 3 -6 1 -6 -6 0 -8 -8 -11 -19 -8 -14 3 -17 0 -14 -14 3 -10 2
-27 -2 -36 -17 -39 -19 -72 -12 -173 6 -81 8 -88 17 -60 4 14 8 -110 9 -277 1
-166 -3 -313 -8 -326 -5 -13 -11 -37 -14 -53 -3 -16 -8 -37 -12 -46 -4 -11 -3
-18 4 -18 6 0 11 -7 11 -16 0 -9 -5 -12 -12 -8 -10 6 -10 5 -1 -7 13 -16 21
-314 9 -326 -3 -4 1 -17 9 -30 9 -13 12 -23 8 -22 -20 3 -30 -2 -30 -16 0 -12
3 -12 15 -2 13 10 14 8 8 -11 -5 -13 -3 -22 3 -22 8 0 11 -93 11 -295 0 -190
-4 -295 -10 -295 -5 0 -10 -11 -10 -24 0 -14 -5 -28 -10 -31 -7 -4 -7 -11 -2
-18 13 -18 15 -90 2 -82 -6 4 -10 -9 -10 -34 0 -23 4 -41 9 -41 5 0 11 -9 14
-20 3 -11 1 -18 -4 -14 -11 6 0 -25 15 -45 8 -11 8 -13 -1 -7 -12 6 -18 -5
-14 -26 0 -5 -6 -8 -14 -8 -8 0 -15 5 -15 11 0 6 -9 8 -20 4 -13 -4 -20 -2
-20 7 0 10 -2 10 -9 -1 -7 -11 -10 -11 -17 0 -11 17 -54 20 -54 5 0 -6 -5 -4
-10 4 -7 11 -10 12 -10 2 0 -10 -3 -10 -15 1 -8 9 -26 14 -39 13 -14 -2 -29 4
-37 15 -10 15 -16 16 -28 6 -8 -7 -12 -7 -9 -2 4 6 3 17 -3 25 -6 10 -9 11 -9
3 0 -7 -8 -13 -17 -13 -12 0 -14 3 -6 8 7 4 9 13 4 21 -7 10 -9 9 -14 -3 -4
-9 -19 -17 -34 -17 -17 -1 -21 -3 -10 -6 9 -2 15 -8 12 -13 -8 -13 -35 0 -35
17 0 8 -4 12 -8 9 -5 -3 -9 8 -10 24 0 17 3 30 8 30 4 0 5 27 3 60 -4 47 -2
60 8 60 11 0 11 2 2 8 -25 16 -26 65 -3 95 12 15 26 25 31 22 5 -4 9 -2 9 3 0
6 -7 13 -16 16 -8 3 -13 2 -10 -3 3 -5 -1 -14 -9 -21 -8 -7 -15 -9 -15 -4 -13
286 -13 269 -10 469 3 243 -1 406 -10 400 -9 -6 -8 15 2 31 4 6 6 68 5 138 -1
74 2 131 8 138 7 8 6 9 -4 3 -10 -5 -12 -3 -7 12 6 20 8 620 2 743 -2 41 -7
84 -12 94 -5 13 -3 21 4 24 7 2 12 10 12 18 0 9 -4 12 -10 9 -6 -4 -10 8 -10
29 0 22 5 36 13 36 9 0 9 2 1 8 -16 10 -17 151 -2 170 7 8 13 35 13 61 3 96 5
112 15 106 6 -4 8 -11 5 -16 -4 -5 -1 -9 4 -9 6 0 12 12 13 28 0 15 2 32 3 37
2 6 3 16 4 23 0 7 4 11 9 9 4 -3 7 8 7 23 0 15 -3 26 -7 24 -4 -2 -9 0 -13 6
-4 6 -11 7 -17 4 -15 -10 -27 16 -19 40 10 26 2 55 -9 36 -4 -6 -7 2 -6 19 1
17 5 31 9 31 5 0 6 4 3 9 -3 5 10 9 29 8 19 -1 35 -5 35 -9z m3955 -2 c25 -9
44 -11 51 -5 6 5 19 6 29 3 10 -4 34 -7 54 -7 20 0 42 -5 50 -11 11 -8 13 -8
7 2 -8 13 -2 15 63 13 24 0 50 4 57 10 9 7 14 8 14 1 0 -5 20 -8 48 -7 26 2
53 -2 61 -8 11 -9 13 -9 8 -1 -7 13 60 26 78 16 13 -8 105 -10 105 -3 0 4 13
7 30 7 17 1 27 -2 24 -8 -4 -7 0 -6 12 0 20 10 100 9 111 -2 3 -3 12 -1 20 5
8 7 18 8 26 2 6 -5 73 -8 147 -6 268 6 315 5 360 -11 24 -8 47 -13 52 -10 4 3
21 -4 37 -15 16 -12 51 -30 77 -42 42 -18 46 -22 29 -29 -19 -8 -19 -9 2 -9
12 -1 25 4 28 9 4 6 19 9 35 8 20 -1 26 -6 22 -17 -4 -10 -1 -13 11 -8 9 3 17
2 17 -3 0 -6 10 -10 23 -10 45 0 227 -141 227 -176 0 -8 5 -14 10 -14 6 0 10
-7 10 -16 0 -9 5 -12 13 -8 9 6 9 4 -1 -8 -10 -13 -10 -17 2 -21 18 -7 13 -43
-5 -39 -10 3 -10 0 1 -12 7 -9 9 -16 6 -16 -4 0 -4 -4 -1 -10 4 -6 11 -5 19 3
8 6 12 15 9 20 -2 4 0 7 5 7 5 0 10 -11 10 -25 0 -13 -4 -22 -9 -19 -5 3 -6
-2 -3 -10 3 -9 12 -12 21 -9 11 4 14 2 9 -5 -4 -7 -1 -12 9 -12 12 0 15 -5 11
-16 -6 -15 -4 -15 11 -3 11 9 14 10 9 2 -4 -8 -2 -13 4 -13 6 0 20 -19 30 -43
36 -82 83 -346 59 -331 -8 4 -8 1 -2 -12 5 -11 8 -41 7 -69 -2 -27 -4 -76 -5
-107 -2 -32 -5 -58 -9 -58 -3 0 -5 -15 -5 -32 1 -46 -38 -189 -69 -252 -34
-69 -83 -92 -98 -46 -3 10 -6 8 -10 -8 -4 -14 -2 -20 4 -15 7 3 8 1 4 -6 -6
-9 -11 -9 -21 -1 -10 9 -15 5 -20 -18 -5 -23 -13 -31 -43 -38 -30 -8 -37 -14
-35 -32 2 -12 -2 -22 -7 -22 -6 0 -10 -5 -10 -12 0 -6 7 -4 18 5 24 22 29 21
42 -3 9 -17 8 -19 -7 -13 -10 3 -15 3 -11 -2 4 -4 2 -15 -5 -23 -10 -13 -9
-14 2 -7 8 5 5 -5 -7 -23 -38 -52 -100 -93 -177 -117 -68 -21 -76 -22 -84 -7
-8 14 -11 14 -27 2 -15 -12 -16 -12 -9 -1 5 10 4 12 -3 7 -7 -4 -12 -14 -12
-23 0 -20 -60 -73 -82 -73 -25 0 -23 -8 22 -78 22 -33 40 -66 40 -72 0 -5 4
-10 9 -10 5 0 12 -17 16 -37 4 -21 12 -41 18 -45 15 -9 16 -45 0 -45 -7 0 -13
11 -13 24 0 14 -4 21 -10 18 -6 -4 -9 -3 -8 2 2 4 -1 9 -7 10 -16 4 -10 -41
10 -70 9 -15 22 -27 29 -27 6 0 4 -5 -4 -11 -12 -9 -12 -10 3 -5 10 3 23 6 28
6 5 0 9 4 9 9 0 5 -7 8 -16 7 -9 0 -19 4 -21 11 -6 18 28 9 43 -12 10 -13 14
-14 14 -5 0 45 209 -241 213 -291 1 -16 7 -29 12 -29 6 0 11 -9 11 -20 0 -13
-5 -19 -13 -16 -7 3 -13 1 -13 -5 0 -6 -7 -9 -15 -5 -10 4 -15 -1 -15 -14 0
-11 5 -20 10 -20 7 0 7 -7 -1 -21 -6 -13 -7 -19 -1 -15 15 9 63 -12 60 -26 -2
-7 5 -12 14 -12 14 1 17 -4 13 -25 -2 -14 0 -33 6 -41 9 -13 10 -13 7 0 -2 8
1 16 6 17 5 1 12 7 16 13 5 9 9 9 14 1 4 -6 2 -11 -3 -11 -6 0 -11 -9 -11 -20
0 -28 17 -25 24 4 5 19 11 22 31 18 14 -2 23 -7 20 -10 -2 -3 4 -12 15 -19 11
-8 18 -19 15 -24 -4 -5 -2 -9 3 -9 11 0 92 -114 92 -129 0 -6 4 -11 8 -11 5 0
13 -16 19 -35 10 -31 9 -37 -8 -46 -11 -5 -16 -15 -13 -21 4 -6 3 -8 -4 -4 -6
3 -20 -3 -30 -15 -11 -11 -28 -19 -39 -17 -10 3 -33 -4 -52 -16 -19 -11 -31
-14 -27 -7 7 10 4 11 -10 3 -11 -5 -74 -11 -141 -11 l-122 -2 -16 32 c-9 17
-12 28 -6 25 7 -4 11 1 11 13 0 23 15 28 23 9 3 -7 6 2 6 20 1 17 6 32 11 32
6 0 10 7 10 15 0 8 -9 15 -19 15 -10 0 -22 7 -25 16 -3 8 -12 12 -18 9 -7 -4
-5 0 6 9 11 9 17 23 14 34 -4 15 -1 18 14 14 19 -4 19 -3 7 19 -7 14 -14 19
-17 11 -6 -19 -22 -14 -22 7 0 10 10 26 23 34 18 13 19 16 5 16 -10 1 -18 -3
-18 -8 0 -4 -11 -6 -25 -3 -26 5 -33 -6 -15 -24 7 -7 6 -11 -4 -11 -8 0 -13 4
-10 9 3 4 0 8 -5 8 -15 0 -14 -27 2 -33 7 -3 5 -6 -5 -6 -10 -1 -18 6 -18 14
0 21 -21 28 -51 17 -13 -5 -33 -6 -44 -1 -11 4 -16 8 -11 8 6 1 3 7 -6 14 -18
14 -159 223 -154 228 9 11 16 60 7 55 -5 -4 -13 -1 -17 5 -5 8 -3 9 5 5 8 -5
14 0 18 13 3 12 9 21 14 21 5 0 9 5 9 11 0 5 -6 7 -12 3 -10 -6 -10 -4 0 8 10
13 10 18 1 24 -8 5 -10 3 -5 -7 5 -8 2 -8 -6 2 -7 9 -19 14 -25 12 -8 -3 -13
5 -13 21 0 22 -10 32 -24 24 -2 -2 -13 5 -23 15 -11 9 -24 14 -29 10 -5 -5 2
5 16 22 14 16 17 23 8 16 -10 -7 -18 -10 -18 -5 0 5 -5 1 -11 -9 -8 -14 -14
-15 -32 -5 -12 7 -24 12 -27 11 -7 -2 -111 155 -114 170 -1 7 -4 17 -8 22 -3
6 -4 25 -3 44 2 22 0 29 -6 20 -7 -11 -9 -11 -9 2 0 18 26 33 41 24 5 -4 6 1
3 9 -7 19 -20 21 -27 4 -4 -8 -6 -7 -6 4 -1 9 -7 18 -13 21 -9 3 -7 10 7 22
11 9 14 14 7 10 -7 -4 -20 -1 -28 6 -8 6 -18 8 -22 4 -4 -4 -1 -10 6 -12 6 -3
12 -14 12 -26 -1 -22 -1 -22 -13 1 -7 13 -26 29 -41 37 -35 18 -39 19 -31 3 4
-7 1 -6 -7 2 -15 17 -108 19 -146 4 -18 -8 -148 -9 -347 -4 -16 0 -83 -2 -147
-6 -102 -6 -118 -9 -118 -24 0 -9 -3 -20 -6 -23 -4 -4 -6 -75 -4 -159 6 -305
5 -490 -2 -494 -4 -3 -3 -16 2 -29 5 -14 6 -25 2 -25 -7 0 -11 -42 -10 -110 0
-19 0 -46 -1 -60 0 -14 -2 -64 -3 -112 -1 -49 -5 -88 -10 -88 -4 0 -5 -7 -1
-16 5 -14 -6 -16 -98 -12 -57 2 -113 9 -124 15 -11 5 -51 11 -89 11 -37 1 -75
7 -83 13 -12 11 -13 8 -8 -14 9 -35 -7 -35 -22 1 -9 20 -11 218 -7 832 6 890
7 936 22 933 6 -1 13 4 16 13 4 10 2 13 -7 8 -8 -5 -7 -2 2 9 11 14 11 20 0
34 -12 15 -12 16 1 8 13 -8 13 -7 1 8 -7 9 -19 17 -27 17 -7 0 -12 9 -11 20 2
24 43 28 72 6 14 -10 25 -11 39 -4 12 7 16 7 12 0 -3 -6 -2 -13 4 -17 5 -3 10
-2 10 4 0 6 17 9 40 7 22 -2 43 1 46 5 3 5 10 7 15 3 5 -3 15 -2 22 3 7 5 51
11 98 12 103 3 113 -4 100 -72 -4 -25 -8 -64 -7 -86 0 -23 -2 -41 -6 -41 -8 0
-3 -74 7 -90 4 -6 4 -14 1 -17 -3 -4 -6 0 -7 8 0 8 -4 6 -8 -6 -11 -29 -2 -55
17 -48 10 4 13 2 8 -5 -6 -10 1 -15 24 -14 3 0 20 3 39 7 26 5 32 4 26 -5 -6
-10 -4 -11 6 -4 20 13 199 13 191 0 -3 -6 2 -5 11 3 13 10 20 11 31 2 11 -9
20 -10 36 -1 21 11 106 10 127 -3 6 -4 14 -3 17 2 7 11 85 9 104 -3 6 -4 12
-3 12 2 0 11 284 9 318 -2 11 -4 23 -2 27 3 3 6 26 8 51 6 25 -3 54 0 65 5 11
7 19 7 19 1 0 -5 -6 -12 -12 -14 -10 -4 -10 -6 -1 -6 6 -1 19 8 27 20 8 12 19
18 24 15 6 -3 21 3 33 15 13 11 17 18 9 14 -8 -4 -6 0 4 9 10 8 22 13 27 11 4
-3 9 -2 11 2 1 5 28 28 58 53 30 24 61 53 68 62 7 10 17 16 21 14 4 -3 18 4
31 16 16 15 25 18 28 10 2 -7 9 -9 15 -5 6 4 8 0 4 -10 -3 -10 -3 -17 1 -18
48 -7 60 -5 57 10 -1 9 2 24 7 34 10 20 -11 24 -29 6 -9 -9 -11 -7 -7 8 4 15
12 19 27 16 18 -4 19 -3 7 6 -8 6 -11 11 -6 11 6 0 5 5 -1 11 -13 13 -6 42 8
33 5 -3 9 -1 9 4 0 5 -10 13 -22 17 l-23 7 25 7 25 7 -24 7 c-18 4 -22 9 -14
19 6 7 7 22 3 33 -4 11 -6 49 -4 85 2 36 6 89 7 118 2 32 -1 52 -7 53 -7 0 -6
3 1 5 7 3 10 11 7 19 -3 7 2 27 11 45 9 17 14 37 11 43 -2 7 -5 4 -5 -5 -1
-10 -5 -18 -11 -18 -5 0 -7 7 -4 15 4 8 1 15 -7 15 -7 0 -10 3 -6 6 3 4 -1 21
-9 38 -12 25 -12 27 -1 13 13 -15 15 -15 20 -3 4 9 1 19 -5 22 -8 5 -6 9 6 14
16 5 15 8 -6 25 -17 15 -19 16 -9 3 12 -15 11 -18 -2 -18 -9 0 -21 -8 -26 -17
-9 -16 -10 -17 -11 -1 0 9 -9 20 -20 23 -11 4 -46 31 -78 61 -31 30 -76 66
-99 80 -24 14 -43 30 -43 36 0 5 -5 6 -12 2 -8 -5 -9 -2 -5 10 4 10 1 19 -8
22 -8 4 -15 10 -15 15 0 5 -10 19 -21 30 -17 17 -23 19 -30 8 -5 -8 -9 -12
-10 -9 -11 63 -8 57 -34 62 -15 2 -20 -2 -19 -19 1 -16 -3 -20 -15 -15 -13 5
-14 3 -4 -9 10 -12 8 -15 -8 -16 -12 -1 -17 2 -12 10 3 7 -4 3 -17 -8 l-23
-20 7 25 c4 14 4 21 -1 15 -18 -22 -50 -34 -62 -22 -8 8 -11 8 -11 -1 0 -10
-41 -12 -170 -11 -93 1 -168 5 -166 8 2 3 -51 6 -117 6 -67 0 -127 4 -134 8
-6 5 -20 4 -30 0 -10 -5 -34 -6 -53 -3 -19 3 -47 3 -62 -1 -15 -4 -30 -4 -33
0 -2 5 -24 4 -47 -1 -56 -13 -197 -16 -223 -4 -10 5 -35 9 -54 10 -27 1 -37 6
-39 21 -5 27 -22 46 -34 39 -5 -3 -7 -12 -4 -20 6 -17 1 -17 -24 -4 -14 7 -23
6 -33 -4 -8 -8 -23 -13 -34 -10 -11 3 -25 -1 -32 -10 -15 -18 -46 -22 -35 -4
5 8 0 9 -14 6 -22 -6 -22 -5 -21 155 1 185 6 211 37 215 12 2 22 6 22 10 0 14
174 12 215 -2z m3385 -126 c0 -5 -5 -10 -11 -10 -5 0 -7 5 -4 10 3 6 8 10 11
10 2 0 4 -4 4 -10z m1475 -40 c3 -5 1 -10 -4 -10 -6 0 -11 5 -11 10 0 6 2 10
4 10 3 0 8 -4 11 -10z m-6341 -25 c-4 -8 -11 -15 -16 -15 -6 0 -5 6 2 15 7 8
14 15 16 15 2 0 1 -7 -2 -15z m-2524 -9 c0 -3 -4 -8 -10 -11 -5 -3 -10 -1 -10
4 0 6 5 11 10 11 6 0 10 -2 10 -4z m2514 -31 c-4 -8 -10 -12 -15 -9 -14 8 -10
24 6 24 9 0 12 -6 9 -15z m-2541 -180 c-3 -9 -8 -14 -10 -11 -3 3 -2 9 2 15 9
16 15 13 8 -4z m5952 -1176 c11 -16 1 -19 -13 -3 -7 8 -8 14 -3 14 5 0 13 -5
16 -11z m-3775 -109 c0 -5 -4 -10 -10 -10 -5 0 -10 5 -10 10 0 6 5 10 10 10 6
0 10 -4 10 -10z m-465 -169 c3 -5 2 -12 -3 -15 -5 -3 -9 1 -9 9 0 17 3 19 12
6z m-508 -298 c-3 -3 -11 -2 -17 2 -9 6 -9 10 1 16 14 8 27 -7 16 -18z m7668
-421 c-3 -3 -11 0 -18 7 -9 10 -8 11 6 5 10 -3 15 -9 12 -12z m-2965 -36 c0
-3 -4 -8 -10 -11 -5 -3 -10 -1 -10 4 0 6 5 11 10 11 6 0 10 -2 10 -4z m25 -36
c3 -5 -1 -10 -10 -10 -9 0 -13 5 -10 10 3 6 8 10 10 10 2 0 7 -4 10 -10z
m-4335 -24 c0 -3 -4 -8 -10 -11 -5 -3 -10 -1 -10 4 0 6 5 11 10 11 6 0 10 -2
10 -4z m6104 -56 c28 -10 36 -40 11 -40 -9 0 -12 6 -9 15 4 9 0 15 -9 15 -9 0
-19 5 -22 10 -8 12 -3 13 29 0z m226 -54 c0 -3 -4 -8 -10 -11 -5 -3 -10 -1
-10 4 0 6 5 11 10 11 6 0 10 -2 10 -4z m1244 -24 c2 -4 -7 -8 -22 -9 -24 -2
-24 -1 -7 7 11 5 21 9 22 9 1 1 4 -3 7 -7z m-163 -59 c13 -16 12 -17 -3 -4
-10 7 -18 15 -18 17 0 8 8 3 21 -13z m-1466 -143 c3 -5 1 -10 -4 -10 -6 0 -11
5 -11 10 0 6 2 10 4 10 3 0 8 -4 11 -10z m39 -38 c-8 -2 -12 -8 -9 -13 3 -5
-1 -6 -9 -3 -13 5 -13 9 1 31 16 23 17 24 24 7 4 -12 1 -20 -7 -22z m-1846 9
c-7 -11 -16 -17 -20 -15 -14 9 -9 22 10 27 9 3 18 5 20 6 1 0 -3 -8 -10 -18z
m-5701 -53 c-3 -8 -6 -5 -6 6 -1 11 2 17 5 13 3 -3 4 -12 1 -19z"/>
<path d="M9719 8097 c7 -7 14 -8 21 -1 6 6 2 10 -12 11 -16 2 -18 -1 -9 -10z"/>
<path d="M11020 7985 c0 -8 5 -15 10 -15 6 0 10 7 10 15 0 8 -4 15 -10 15 -5
0 -10 -7 -10 -15z"/>
<path d="M11080 7956 c0 -9 5 -16 10 -16 6 0 10 4 10 9 0 6 -4 13 -10 16 -5 3
-10 -1 -10 -9z"/>
<path d="M11030 7946 c0 -2 7 -6 15 -10 8 -3 15 -1 15 4 0 6 -7 10 -15 10 -8
0 -15 -2 -15 -4z"/>
<path d="M9856 7929 c3 -5 0 -9 -7 -9 -7 0 -9 -3 -6 -6 4 -4 13 -2 20 4 8 7
16 11 18 9 2 -1 3 0 1 2 -1 3 -9 6 -17 7 -8 1 -13 -2 -9 -7z"/>
<path d="M10755 7911 c-6 -11 9 -23 19 -14 9 9 7 23 -3 23 -6 0 -12 -4 -16 -9z"/>
<path d="M9938 7883 c7 -3 16 -2 19 1 4 3 -2 6 -13 5 -11 0 -14 -3 -6 -6z"/>
<path d="M9840 7829 c0 -5 5 -7 10 -4 6 3 10 8 10 11 0 2 -4 4 -10 4 -5 0 -10
-5 -10 -11z"/>
<path d="M10798 7835 c-4 -4 -4 -13 -1 -21 7 -20 43 -18 43 2 0 13 -3 14 -14
5 -11 -10 -15 -9 -18 4 -1 9 -6 14 -10 10z"/>
<path d="M9130 7801 c0 -5 7 -12 16 -15 14 -5 15 -4 4 9 -14 17 -20 19 -20 6z"/>
<path d="M9380 7480 c-6 -11 -8 -20 -6 -20 3 0 10 9 16 20 6 11 8 20 6 20 -3
0 -10 -9 -16 -20z"/>
<path d="M8765 6190 c3 -5 8 -10 11 -10 2 0 4 5 4 10 0 6 -5 10 -11 10 -5 0
-7 -4 -4 -10z"/>
<path d="M8850 6150 c0 -5 5 -10 10 -10 6 0 10 5 10 10 0 6 -4 10 -10 10 -5 0
-10 -4 -10 -10z"/>
<path d="M9237 5925 c3 -8 9 -12 14 -9 12 7 11 11 -5 17 -10 4 -13 1 -9 -8z"/>
<path d="M9281 5846 c-10 -12 -8 -13 8 -9 12 3 21 9 21 14 0 14 -16 11 -29 -5z"/>
<path d="M9120 5624 c0 -14 4 -23 9 -19 11 6 10 45 -1 45 -4 0 -8 -12 -8 -26z"/>
<path d="M9280 5594 c0 -8 5 -12 10 -9 6 4 8 11 5 16 -9 14 -15 11 -15 -7z"/>
<path d="M9130 5559 c0 -5 5 -7 10 -4 6 3 10 8 10 11 0 2 -4 4 -10 4 -5 0 -10
-5 -10 -11z"/>
<path d="M10990 5550 c0 -5 5 -10 10 -10 6 0 10 5 10 10 0 6 -4 10 -10 10 -5
0 -10 -4 -10 -10z"/>
<path d="M11050 5547 c0 -2 6 -10 14 -16 11 -9 16 -9 22 1 4 7 4 10 -1 6 -4
-4 -14 -3 -22 3 -7 6 -13 9 -13 6z"/>
<path d="M10944 5512 c4 -3 14 -7 22 -8 9 -1 13 0 10 4 -4 3 -14 7 -22 8 -9 1
-13 0 -10 -4z"/>
<path d="M9731 5358 c-10 -18 -11 -20 0 -10 7 6 21 12 31 12 10 0 18 5 18 10
0 19 -35 10 -49 -12z"/>
<path d="M9860 5371 c0 -15 52 -23 61 -9 4 7 6 15 3 17 -3 3 -8 0 -12 -6 -5
-8 -13 -9 -22 -3 -19 12 -30 12 -30 1z"/>
<path d="M9960 5370 c0 -5 5 -10 11 -10 5 0 7 5 4 10 -3 6 -8 10 -11 10 -2 0
-4 -4 -4 -10z"/>
<path d="M9800 5352 c0 -4 9 -8 20 -8 11 0 20 4 20 8 0 4 -9 8 -20 8 -11 0
-20 -4 -20 -8z"/>
<path d="M9685 5320 c-3 -5 -1 -10 4 -10 6 0 11 5 11 10 0 6 -2 10 -4 10 -3 0
-8 -4 -11 -10z"/>
<path d="M9840 5310 c0 -5 5 -10 11 -10 5 0 7 5 4 10 -3 6 -8 10 -11 10 -2 0
-4 -4 -4 -10z"/>
<path d="M9687 5293 c-10 -10 -8 -23 4 -23 5 0 8 4 5 9 -4 5 0 12 6 14 7 3 8
6 2 6 -6 1 -14 -2 -17 -6z"/>
<path d="M9710 5269 c0 -5 5 -7 10 -4 6 3 10 8 10 11 0 2 -4 4 -10 4 -5 0 -10
-5 -10 -11z"/>
<path d="M10421 5104 c0 -11 3 -14 6 -6 3 7 2 16 -1 19 -3 4 -6 -2 -5 -13z"/>
<path d="M5078 8193 c6 -2 18 -2 25 0 6 3 1 5 -13 5 -14 0 -19 -2 -12 -5z"/>
<path d="M2260 8160 c0 -24 -28 -27 -37 -3 -6 15 -7 15 -14 -3 -4 -10 -8 -29
-8 -41 -1 -19 3 -21 36 -17 44 5 53 12 34 24 -12 7 -11 11 2 25 10 9 15 21 12
26 -11 16 -25 10 -25 -11z"/>
<path d="M2351 8134 c0 -11 3 -14 6 -6 3 7 2 16 -1 19 -3 4 -6 -2 -5 -13z"/>
<path d="M4766 8113 c-12 -12 -6 -22 10 -16 9 3 20 0 25 -8 5 -8 9 -9 9 -4 0
23 -30 42 -44 28z"/>
<path d="M5245 8110 c-3 -5 -1 -10 4 -10 6 0 11 5 11 10 0 6 -2 10 -4 10 -3 0
-8 -4 -11 -10z"/>
<path d="M2260 8073 c1 -24 28 -59 37 -48 5 4 2 10 -4 12 -7 3 -13 13 -13 23
0 10 6 21 13 23 6 3 2 6 -10 6 -16 1 -23 -5 -23 -16z"/>
<path d="M4818 8003 c7 -3 16 -2 19 1 4 3 -2 6 -13 5 -11 0 -14 -3 -6 -6z"/>
<path d="M2885 7750 c3 -5 8 -10 11 -10 2 0 4 5 4 10 0 6 -5 10 -11 10 -5 0
-7 -4 -4 -10z"/>
<path d="M2690 7509 c0 -5 5 -7 10 -4 6 3 10 8 10 11 0 2 -4 4 -10 4 -5 0 -10
-5 -10 -11z"/>
<path d="M4645 7270 c3 -5 8 -10 11 -10 2 0 4 5 4 10 0 6 -5 10 -11 10 -5 0
-7 -4 -4 -10z"/>
<path d="M3224 7039 c-3 -6 -2 -15 3 -20 5 -5 9 -1 9 11 0 23 -2 24 -12 9z"/>
<path d="M3342 6896 c7 -8 15 -12 17 -11 5 6 -10 25 -20 25 -5 0 -4 -6 3 -14z"/>
<path d="M3000 6866 c0 -2 7 -7 16 -10 8 -3 12 -2 9 4 -6 10 -25 14 -25 6z"/>
<path d="M4084 6012 c3 -5 0 -12 -6 -15 -7 -2 -10 -7 -7 -11 3 -4 12 0 18 8 9
11 9 16 0 22 -7 4 -9 3 -5 -4z"/>
<path d="M3997 5879 c7 -7 15 -10 18 -7 3 3 -2 9 -12 12 -14 6 -15 5 -6 -5z"/>
<path d="M2230 5409 c0 -5 5 -7 10 -4 6 3 10 8 10 11 0 2 -4 4 -10 4 -5 0 -10
-5 -10 -11z"/>
<path d="M2570 5211 c0 -7 -5 -9 -12 -5 -7 5 -8 3 -3 -5 5 -9 10 -10 18 -2 6
6 8 14 4 18 -4 3 -7 1 -7 -6z"/>
<path d="M2386 5147 c3 -10 9 -15 12 -12 3 3 0 11 -7 18 -10 9 -11 8 -5 -6z"/>
<path d="M5206 5132 c-3 -5 1 -9 9 -9 8 0 12 4 9 9 -3 4 -7 8 -9 8 -2 0 -6 -4
-9 -8z"/>
<path d="M7040 8120 c0 -5 5 -10 10 -10 6 0 10 5 10 10 0 6 -4 10 -10 10 -5 0
-10 -4 -10 -10z"/>
<path d="M7820 8101 c0 -10 29 -36 34 -30 1 2 -6 12 -16 22 -10 9 -18 13 -18
8z"/>
<path d="M7703 8093 c9 -2 15 -9 12 -14 -3 -5 1 -6 10 -2 13 5 14 7 3 14 -7 5
-20 8 -28 8 -11 -1 -10 -3 3 -6z"/>
<path d="M7777 8070 c3 -11 7 -20 8 -20 1 0 5 9 8 20 3 12 0 20 -8 20 -8 0
-11 -8 -8 -20z"/>
<path d="M7797 8051 c-3 -13 -1 -18 9 -14 7 2 10 11 7 19 -7 19 -10 18 -16 -5z"/>
<path d="M7624 8042 c4 -3 14 -7 22 -8 9 -1 13 0 10 4 -4 3 -14 7 -22 8 -9 1
-13 0 -10 -4z"/>
<path d="M7674 8006 c-9 -10 -7 -16 10 -26 19 -12 20 -12 8 3 -11 13 -10 17 5
26 14 8 14 10 3 10 -8 0 -20 -6 -26 -13z"/>
<path d="M7600 7982 c0 -6 9 -12 20 -15 11 -3 20 -3 20 -1 0 2 -9 8 -20 14
-11 6 -20 7 -20 2z"/>
<path d="M6190 7859 c0 -11 -4 -17 -10 -14 -5 3 -10 1 -10 -4 0 -6 7 -11 15
-11 9 0 15 9 15 25 0 14 -2 25 -5 25 -3 0 -5 -9 -5 -21z"/>
<path d="M6220 7871 c0 -5 5 -13 10 -16 6 -3 10 -2 10 4 0 5 -4 13 -10 16 -5
3 -10 2 -10 -4z"/>
<path d="M7528 7873 c7 -3 16 -2 19 1 4 3 -2 6 -13 5 -11 0 -14 -3 -6 -6z"/>
<path d="M7911 7574 c0 -11 3 -14 6 -6 3 7 2 16 -1 19 -3 4 -6 -2 -5 -13z"/>
<path d="M5950 6996 c0 -2 7 -7 16 -10 8 -3 12 -2 9 4 -6 10 -25 14 -25 6z"/>
<path d="M7925 6990 c3 -5 8 -10 11 -10 2 0 4 5 4 10 0 6 -5 10 -11 10 -5 0
-7 -4 -4 -10z"/>
<path d="M7710 6406 c0 -2 6 -9 13 -15 10 -8 14 -7 14 4 0 8 -6 15 -14 15 -7
0 -13 -2 -13 -4z"/>
<path d="M7805 5940 c3 -5 8 -10 11 -10 2 0 4 5 4 10 0 6 -5 10 -11 10 -5 0
-7 -4 -4 -10z"/>
<path d="M7648 5873 c6 -2 18 -2 25 0 6 3 1 5 -13 5 -14 0 -19 -2 -12 -5z"/>
<path d="M7608 5841 c7 -4 12 -13 10 -18 -3 -10 1 -13 17 -13 3 0 1 9 -5 20
-6 11 -16 20 -23 20 -9 0 -8 -3 1 -9z"/>
<path d="M7965 5590 c3 -5 8 -10 11 -10 2 0 4 5 4 10 0 6 -5 10 -11 10 -5 0
-7 -4 -4 -10z"/>
<path d="M7920 5480 c0 -19 3 -21 12 -12 9 9 9 15 0 24 -9 9 -12 7 -12 -12z"/>
<path d="M8010 5425 c0 -5 5 -17 10 -25 5 -8 10 -10 10 -5 0 6 -5 17 -10 25
-5 8 -10 11 -10 5z"/>
<path d="M7972 5327 c-8 -10 -6 -16 9 -25 17 -11 19 -9 19 13 0 27 -12 32 -28
12z"/>
</g>
</svg>
